# xmcd
#
# Track frame offsets:
# 150
# 17875
# 32315
# 51060
# 57240
# 93427
# 111745
# 149857
#
# Disc length: 2376 seconds
#
#
# Revision: 1
# Processed by: cddbd v1.5.1PL2 Copyright (c) Steve Scherf et al.
# Submitted via: FreeRIP 2.92 
#
DISCID=71094608
DTITLE=Museo Rosenbach - Zarathustra
DYEAR=1900
DGENRE=Progressive Rock
TTITLE0=Zarathustra a: L'ultimo uomo
TTITLE1=b: Il re di ieri
TTITLE2=c: Al di la del bene e del male
TTITLE3=d: Superuomo
TTITLE4=e: Il tempio delle clessidre
TTITLE5=Degli Uomini
TTITLE6=Della Natura
TTITLE7=Dell'eterno Ritorno
EXTD=
EXTT0=
EXTT1=
EXTT2=
EXTT3=
EXTT4=
EXTT5=
EXTT6=
EXTT7=
PLAYORDER=
